<svg id="Calque_1" data-name="Calque 1" xmlns="http://www.w3.org/2000/svg" viewBox="0 0 1897 308.93"><defs><style>.cls-1{fill:#006a90;}.cls-2{fill:#e74b38;}.cls-3,.cls-4{fill:none;}.cls-3{stroke:#fff;stroke-miterlimit:10;stroke-width:4.99px;}</style></defs><path class="cls-1" d="M424.08,72.08v39.56h63.77v36.73H424.08v42.9h84.16l-12,38.17H376.47V33.9h135.4l-6.65,38.18Z" transform="translate(-12 -31.11)"/><path class="cls-1" d="M840.83,194.84h-73l-11.68,34.54H706.33L777.06,33.9h55.11L902.9,229.38H852.5ZM828.6,158.11,804.4,86.54l-24,71.57Z" transform="translate(-12 -31.11)"/><path class="cls-2" d="M1266.7,127.86q-7.8,14.07-24,22.69t-40.11,8.65h-29.52v70.18h-47.62V33.9h77.14q23.41,0,39.57,8.11t24.2,22.26q8.08,14.16,8.11,32.61A62.79,62.79,0,0,1,1266.7,127.86Zm-47.31-13c4.48-4.23,6.66-10.28,6.66-18.09s-2.24-13.85-6.66-18.09-11.25-6.41-20.33-6.41h-25.89v49h25.89C1208.14,121.32,1214.91,119.21,1219.39,114.91Z" transform="translate(-12 -31.11)"/><path class="cls-2" d="M1342.15,33.9V229.38h-47.61V33.9Z" transform="translate(-12 -31.11)"/><polygon class="cls-1" points="276.5 161.48 276.5 2.78 228.88 2.78 228.88 198.27 338.03 198.27 350.92 161.48 276.5 161.48"/><path class="cls-1" d="M612,119.09v35.09h60.45c-3.69,11.13-9.62,19.66-17.67,25.59s-18,8.89-29.65,8.89c-17.06,0-30.49-5-40.23-15.18s-14.64-24.2-14.64-42.17q0-25.32,13.91-40.54t37-15.19c8.89,0,16.64,1.7,23.23,5.15a35.7,35.7,0,0,1,15.19,14.88h52.64q-7.82-30-31.89-47.07t-59.17-17q-29,0-51.49,12.64A89.91,89.91,0,0,0,534.5,79.52c-8.47,15.12-12.64,32.37-12.64,51.67s4.23,36.48,12.64,51.48a89.67,89.67,0,0,0,35.39,35.22c15.13,8.47,32.37,12.64,51.67,12.64q24.51,0,44-9.44a103.4,103.4,0,0,0,16.88-10.28L715,118.9H612Z" transform="translate(-12 -31.11)"/><path class="cls-3" d="M431.22,13.87" transform="translate(-12 -31.11)"/><polygon class="cls-1" points="962.48 161.48 962.48 2.78 914.86 2.78 914.86 198.27 1024.01 198.27 1036.89 161.48 962.48 161.48"/><polygon class="cls-2" points="1699.04 2.78 1699.04 40.96 1750.83 40.96 1750.83 198.27 1798.44 198.27 1798.44 40.96 1883.63 40.96 1897 2.78 1699.04 2.78"/><path class="cls-4" d="M1600,74.25q-23.68,0-37.75,15.31c-9.38,10.23-14,24-14,41.51q0,25.86,14,41.32T1600,187.82q23.41,0,37.45-15.61t14-41.21c0-17.24-4.72-31-14-41.32S1615.56,74.25,1600,74.25Z" transform="translate(-12 -31.11)"/><path class="cls-2" d="M1686.71,79.58a93.85,93.85,0,0,0-36.18-35.64,105.88,105.88,0,0,0-101,0c-2.17,1.21-4.17,2.66-6.29,4.06l-39.33,113.8a96.94,96.94,0,0,0,45.62,56.75,105.64,105.64,0,0,0,100.92,0,94.61,94.61,0,0,0,36.18-35.75q13.35-23,13.37-51.67C1699.9,112,1695.49,94.82,1686.71,79.58Zm-49.31,92.69q-14.06,15.6-37.45,15.61-23.68,0-37.75-15.43t-14-41.32q0-26.14,14-41.51T1600,74.31q23.41,0,37.45,15.43t14,41.33C1651.5,148.19,1646.78,161.92,1637.4,172.27Z" transform="translate(-12 -31.11)"/><polygon class="cls-2" points="1407.53 161.48 1407.53 2.78 1359.92 2.78 1359.92 198.27 1469.13 198.27 1481.95 161.48 1407.53 161.48"/><path class="cls-1" d="M274.46,290.07a23.1,23.1,0,0,1,9.86,9.25,27.48,27.48,0,0,1,3.51,13.92,26.48,26.48,0,0,1-3.51,13.85,23.71,23.71,0,0,1-9.86,9.2,32.22,32.22,0,0,1-14.82,3.27h-18.7v-52.7h18.7A31.27,31.27,0,0,1,274.46,290.07ZM272.28,326c3.09-3,4.6-7.26,4.6-12.76s-1.51-9.8-4.6-12.89-7.44-4.66-13-4.66h-7.56v34.79h7.56C264.9,330.54,269.2,329,272.28,326Z" transform="translate(-12 -31.11)"/><path class="cls-1" d="M340.65,336.59a26.88,26.88,0,0,1,0-47,29.42,29.42,0,0,1,27.65,0,25.6,25.6,0,0,1,9.86,9.62,28.37,28.37,0,0,1,0,27.77,25.68,25.68,0,0,1-9.92,9.62,29.31,29.31,0,0,1-27.59,0Zm22.33-8.1a14.92,14.92,0,0,0,5.74-6.18,21.82,21.82,0,0,0,0-18.51,14.23,14.23,0,0,0-5.74-6.05,18.24,18.24,0,0,0-17.07,0,14.72,14.72,0,0,0-5.8,6.05,21.82,21.82,0,0,0,0,18.51,15.06,15.06,0,0,0,5.8,6.18,16.6,16.6,0,0,0,8.53,2.17A17.88,17.88,0,0,0,363,328.49Z" transform="translate(-12 -31.11)"/><path class="cls-1" d="M424.45,299.14a24.66,24.66,0,0,1,9.74-9.56,29.52,29.52,0,0,1,29.58,1.09,24,24,0,0,1,9.44,12.53H460.87a12.55,12.55,0,0,0-5.2-5.69,15.24,15.24,0,0,0-7.69-1.88,16.1,16.1,0,0,0-8.35,2.18,15.21,15.21,0,0,0-5.68,6.05,19.91,19.91,0,0,0-2.06,9.2,19.48,19.48,0,0,0,2.06,9.19,14.54,14.54,0,0,0,5.68,6.11,15.86,15.86,0,0,0,8.35,2.18,15.11,15.11,0,0,0,7.69-1.93,13.27,13.27,0,0,0,5.2-5.69h12.34a23.77,23.77,0,0,1-9.38,12.58A27.38,27.38,0,0,1,448.1,340a27.82,27.82,0,0,1-13.85-3.45,25,25,0,0,1-9.74-9.56,27.19,27.19,0,0,1-3.57-13.91A26.35,26.35,0,0,1,424.45,299.14Z" transform="translate(-12 -31.11)"/><path class="cls-1" d="M526.64,286.8v32.61c0,3.57,1,6.29,2.84,8.17s4.54,2.84,8,2.84,6.17-1,8-2.84,2.85-4.6,2.85-8.17V286.8h10.83v32.55a20.48,20.48,0,0,1-3,11.37,18.39,18.39,0,0,1-7.92,7,26.27,26.27,0,0,1-11,2.36,24.25,24.25,0,0,1-10.83-2.36,17.83,17.83,0,0,1-7.68-7,21.5,21.5,0,0,1-2.84-11.37V286.8Z" transform="translate(-12 -31.11)"/><path class="cls-1" d="M661.5,286.8v52.7H650.79V305.19L636.45,339.5h-8.11l-14.4-34.31V339.5H603.23V286.8h12.22l17,39.2,17-39.2Z" transform="translate(-12 -31.11)"/><path class="cls-1" d="M716.49,295.33v13.19h18v8.35h-18v14h20.33v8.6h-31V286.68h31v8.59H716.49Z" transform="translate(-12 -31.11)"/><path class="cls-1" d="M826,339.5H815.29L791,303.32V339.5H780.26V286.74H791L815.29,323V286.74H826Z" transform="translate(-12 -31.11)"/><path class="cls-1" d="M906.71,286.8v8.53H892.43V339.5h-10.7V295.33H867.45V286.8Z" transform="translate(-12 -31.11)"/><path class="cls-1" d="M1033,329.45h-21.29l-3.51,10.05H996.92l19.24-52.76h12.53l19.24,52.76h-11.38Zm-3-8.41-7.75-22-7.74,22Z" transform="translate(-12 -31.11)"/><path class="cls-1" d="M1099.29,286.8v32.61c0,3.57,1,6.29,2.85,8.17s4.53,2.84,8,2.84,6.17-1,8.05-2.84,2.84-4.6,2.84-8.17V286.8h10.83v32.55a20.48,20.48,0,0,1-3,11.37,18,18,0,0,1-7.93,7,25,25,0,0,1-11,2.36,24.25,24.25,0,0,1-10.83-2.36,17.72,17.72,0,0,1-7.68-7,21.5,21.5,0,0,1-2.85-11.37V286.8Z" transform="translate(-12 -31.11)"/><path class="cls-1" d="M1212.25,286.8v8.53H1198V339.5h-10.71V295.33H1173V286.8Z" transform="translate(-12 -31.11)"/><path class="cls-1" d="M1264.77,336.59a27.33,27.33,0,0,1-10-37.39,25.94,25.94,0,0,1,10-9.62,29.42,29.42,0,0,1,27.65,0,26.17,26.17,0,0,1,9.92,9.62,28.37,28.37,0,0,1,0,27.77,25.68,25.68,0,0,1-9.92,9.62,28.15,28.15,0,0,1-13.8,3.45A28.48,28.48,0,0,1,1264.77,336.59Zm22.32-8.1a14.94,14.94,0,0,0,5.75-6.18,21.82,21.82,0,0,0,0-18.51,14.62,14.62,0,0,0-5.75-6.05,17,17,0,0,0-8.53-2.12,17.18,17.18,0,0,0-8.53,2.12,14.74,14.74,0,0,0-5.81,6.05,21.92,21.92,0,0,0,0,18.51,15.08,15.08,0,0,0,5.81,6.18,16.6,16.6,0,0,0,8.53,2.17A17.48,17.48,0,0,0,1287.09,328.49Z" transform="translate(-12 -31.11)"/><path class="cls-1" d="M1406,286.8v52.7h-10.77V305.19l-14.34,34.31h-8.11l-14.4-34.31V339.5h-10.7V286.8h12.22l17,39.2,17-39.2Z" transform="translate(-12 -31.11)"/><path class="cls-1" d="M1483.06,329.45h-21.3l-3.51,10.05H1447l19.24-52.76h12.53L1498,339.5h-11.38Zm-2.9-8.41-7.75-22-7.74,22Z" transform="translate(-12 -31.11)"/><path class="cls-1" d="M1575.27,286.8v8.53H1561V339.5h-10.77V295.33h-14.28V286.8Z" transform="translate(-12 -31.11)"/><path class="cls-1" d="M1627.48,286.8v52.7h-10.71V286.8Z" transform="translate(-12 -31.11)"/><path class="cls-1" d="M1682.78,336.59a27.33,27.33,0,0,1-10-37.39,25.91,25.91,0,0,1,10-9.62,29.43,29.43,0,0,1,27.65,0,26.17,26.17,0,0,1,9.92,9.62,28.37,28.37,0,0,1,0,27.77,25.68,25.68,0,0,1-9.92,9.62,29.42,29.42,0,0,1-27.65,0Zm22.33-8.1a14.92,14.92,0,0,0,5.74-6.18,21.82,21.82,0,0,0,0-18.51,14.6,14.6,0,0,0-5.74-6.05,17,17,0,0,0-8.53-2.12,17.22,17.22,0,0,0-8.54,2.12,14.72,14.72,0,0,0-5.8,6.05,21.82,21.82,0,0,0,0,18.51,15.06,15.06,0,0,0,5.8,6.18,16.64,16.64,0,0,0,8.54,2.17A17.69,17.69,0,0,0,1705.11,328.49Z" transform="translate(-12 -31.11)"/><path class="cls-1" d="M1811.41,339.5H1800.7l-24.32-36.18V339.5h-10.71V286.74h10.71L1800.7,323V286.74h10.71Z" transform="translate(-12 -31.11)"/><polygon class="cls-1" points="28.19 80.47 42.72 120.22 191.49 120.22 191.49 80.59 28.19 80.47"/><polygon class="cls-2" points="0 2.78 14.52 42.53 191.49 42.53 191.49 2.96 0 2.78"/><polygon class="cls-2" points="56.39 158.15 70.91 197.9 191.49 197.9 191.49 158.28 56.39 158.15"/></svg>